<?xml version="1.0" encoding="UTF-8"?>
<svg id="Layer_2" data-name="Layer 2" xmlns="http://www.w3.org/2000/svg" viewBox="0 0 22.73 19.87">
  <g id="Layer_1-2" data-name="Layer 1">
    <g>
      <path 
      className="drive-yellow"
      fill="currentColor" 
      d="M12.23,7.81s0-.01,0-.02C10.74,5.21,9.27,2.64,7.81.08c0-.01,0-.03.01-.04,0,0,0,0,.01,0C10.04-.01,12.19,0,14.89,0c.02,0,.03,0,.04.02,1.12,1.96,2.01,3.53,2.7,4.71,0,0,0,.01,0,.02,1.48,2.59,2.95,5.16,4.4,7.72,0,.01,0,.03-.01.04,0,0,0,0-.01,0-2.2.05-4.35.04-7.06.04-.02,0-.03,0-.04-.02-1.12-1.96-2.01-3.53-2.7-4.71Z"/>
      <path 
      className="drive-blue"
      fill="currentColor" 
      d="M22.73,13.65s0,0,0,.01c-1.04,1.95-2.1,3.82-3.43,6.17,0,.02-.02.02-.04.02-2.17,0-3.9,0-5.22,0h-.02c-2.87,0-5.72,0-8.55,0-.01,0-.03-.01-.03-.03,0,0,0,0,0-.01,1.04-1.95,2.1-3.82,3.43-6.17,0-.01.02-.02.04-.02,2.17,0,3.9,0,5.22,0h.02c2.87,0,5.72,0,8.55,0,.01,0,.03.01.03.03Z"/>
      <path 
      className="drive-green"
      fill="currentColor" 
      d="M7.79,12.4s0,0,0,.01c-1.42,2.49-2.84,4.97-4.25,7.43,0,.01-.02.02-.04,0,0,0,0,0,0,0C2.37,17.94,1.32,16.05,0,13.69c0-.02,0-.03,0-.05,1.08-1.89,1.94-3.39,2.59-4.54,0,0,0,0,0-.01,1.42-2.49,2.84-4.97,4.25-7.43,0-.01.02-.02.04,0,0,0,0,0,0,0,1.12,1.9,2.16,3.79,3.48,6.15,0,.02,0,.03,0,.05-1.08,1.89-1.94,3.39-2.59,4.54Z"/>
    </g>
  </g>
</svg>