<?xml version="1.0" encoding="UTF-8"?>
<svg id="Layer_2" data-name="Layer 2" xmlns="http://www.w3.org/2000/svg" viewBox="0 0 7.68 7.73">
  <defs>
  </defs>
  <g id="Layer_1-2" data-name="Layer 1">
    <g>
      <path fill="currentColor" d="M7.68,7.43c0,.08,0,.14-.02.17-.03.06-.07.1-.13.12-.03.01-.09.02-.18.02-.36,0-.7,0-1.02,0-.14,0-.24-.02-.3-.14-.01-.03-.02-.08-.02-.17,0-1.06,0-1.86,0-2.41,0-.09-.01-.21-.03-.36-.02-.16-.09-.36-.19-.49-.1-.13-.23-.22-.38-.25-.18-.05-.39-.04-.57.02-.22.08-.39.28-.48.5-.05.12-.08.24-.11.37-.01.08-.02.2-.02.36,0,.64,0,1.41,0,2.32,0,.11-.05.2-.15.24-.03.01-.09.02-.18.02-.61,0-.92,0-.94,0-.16,0-.28,0-.34-.15-.01-.03-.02-.08-.02-.17V2.84c0-.06.01-.12.03-.16.05-.09.12-.13.22-.13.18,0,.55,0,1.12,0,.13,0,.24.09.24.22,0,.15,0,.29,0,.42,0,0,0,0,0,0,0,0,0,0,0,0,.1-.15.22-.28.35-.39.24-.19.58-.3.89-.32.15-.01.26-.02.39-.01.08,0,.12,0,.13,0,0,0,.01,0,.04,0,.09,0,.19.02.29.05.45.11.81.37,1.02.79.19.36.26.76.29,1.16,0,.06,0,.23.02.5,0,.15,0,.31,0,.5,0,.83,0,1.47,0,1.94Z"/>
      <path fill="currentColor" d="M1.87,7.35c0,.13,0,.21-.02.23-.03.06-.07.1-.13.12-.03.01-.09.02-.18.02-.03,0-.19,0-.49,0s-.46,0-.49,0c-.09,0-.15,0-.18-.02-.05-.03-.1-.07-.13-.12-.02-.03-.02-.11-.02-.23,0-.32,0-1.82,0-4.5,0-.04,0-.07,0-.09,0-.03.02-.06.03-.08.04-.08.11-.13.21-.13.01,0,.2,0,.56,0s.55,0,.56,0c.1,0,.17.05.21.13.01.03.02.06.03.08,0,.02,0,.05,0,.09,0,2.67,0,4.17,0,4.5Z"/>
      <path fill="currentColor" d="M1.05,0c.58,0,1.05.47,1.05,1.05s-.47,1.05-1.05,1.05-1.05-.47-1.05-1.05C0,.76.12.5.31.31c.19-.19.45-.31.74-.31Z"/>
    </g>
  </g>
</svg>